<svg width="20" height="18" viewBox="0 0 20 18" fill="none" xmlns="http://www.w3.org/2000/svg">
<path fill-rule="evenodd" clip-rule="evenodd" d="M18.5468 0.671601C18.1563 0.281077 17.5231 0.281077 17.1326 0.671601L11.7687 6.03554H0V8.03554H0.00842428C0.225635 13.3663 4.61591 17.6213 10 17.6213C15.3841 17.6213 19.7744 13.3663 19.9916 8.03554H20V6.03554H14.5971L18.5468 2.08581C18.9374 1.69529 18.9374 1.06213 18.5468 0.671601ZM12.1762 8.03554C12.1806 8.03557 12.1851 8.03557 12.1896 8.03554H17.9895C17.7739 12.2613 14.2793 15.6213 10 15.6213C5.72066 15.6213 2.22609 12.2613 2.01054 8.03554H12.1762Z" fill="black"/>
</svg>
