<svg width="14" height="18" viewBox="0 0 14 18" fill="none" xmlns="http://www.w3.org/2000/svg">
<path d="M5.97589 6C5.97589 6.55228 5.52818 7 4.97589 7C4.42361 7 3.97589 6.55228 3.97589 6C3.97589 5.44771 4.42361 5 4.97589 5C5.52818 5 5.97589 5.44771 5.97589 6Z" fill="black"/>
<path d="M8.97119 7C9.52348 7 9.97119 6.55228 9.97119 6C9.97119 5.44771 9.52348 5 8.97119 5C8.41891 5 7.97119 5.44771 7.97119 6C7.97119 6.55228 8.41891 7 8.97119 7Z" fill="black"/>
<path fill-rule="evenodd" clip-rule="evenodd" d="M14 17.9999V7C14 3.13401 10.866 0 7 0C3.13401 0 0 3.13401 0 7V18L2.82846 18L4.24264 16.5858L5.65685 18L8.34327 18L9.75745 16.5858L11.1717 18L14 17.9999ZM12 7C12 4.23858 9.76142 2 7 2C4.23858 2 2 4.23858 2 7V16L4.24264 13.7573L7.00004 16.5147L9.75745 13.7573L12 15.9999V7Z" fill="black"/>
</svg>
