<svg width="15" height="17" viewBox="0 0 15 17" fill="none" xmlns="http://www.w3.org/2000/svg">
<path fill-rule="evenodd" clip-rule="evenodd" d="M1.85327 5C1.85327 2.23858 4.09185 0 6.85327 0C9.61469 0 11.8533 2.23858 11.8533 5C11.8533 7.76142 9.61469 10 6.85327 10C4.09185 10 1.85327 7.76142 1.85327 5ZM6.85327 8C5.19642 8 3.85327 6.65685 3.85327 5C3.85327 3.34315 5.19642 2 6.85327 2C8.51013 2 9.85327 3.34315 9.85327 5C9.85327 6.65685 8.51013 8 6.85327 8Z" fill="black"/>
<path d="M0 9.12943C1.25216 11.2031 3.4189 12.6624 5.94141 12.9486V15H3.85327V17H9.85327V15H7.94141V12.9266C11.8449 12.3958 14.8532 9.04919 14.8532 5.00001C14.8532 3.43638 14.4046 1.97752 13.6291 0.745117L11.9253 1.79326C12.513 2.72084 12.8532 3.82069 12.8532 5.00001C12.8532 8.31371 10.167 11 6.85324 11C4.66611 11 2.75231 9.82977 1.70381 8.08128L0 9.12943Z" fill="black"/>
</svg>
